<svg width="62" height="36" viewBox="0 0 62 36" fill="none" xmlns="http://www.w3.org/2000/svg">
<path d="M12.8575 16.224H15.6362C15.6453 16.224 15.654 16.2202 15.6604 16.2133C15.6668 16.2065 15.6704 16.1972 15.6704 16.1876V2.83203C15.6704 2.81294 15.6777 2.79462 15.6906 2.78112C15.7036 2.76762 15.7212 2.76003 15.7396 2.76003H19.1193C19.1324 2.76003 19.1452 2.76483 19.1553 2.7736C19.1654 2.78238 19.1723 2.79456 19.1746 2.80803L23.591 27.6452C23.5972 27.6791 23.6165 27.696 23.6492 27.696H24.4302C24.438 27.696 24.4458 27.694 24.453 27.6903C24.4602 27.6865 24.4667 27.6811 24.472 27.6743C24.4774 27.6674 24.4815 27.6594 24.4841 27.6506C24.4868 27.6418 24.4879 27.6324 24.4874 27.6231L23.4562 2.79555C23.456 2.79098 23.4566 2.7864 23.4581 2.7821C23.4596 2.7778 23.462 2.77387 23.465 2.77054C23.468 2.76722 23.4717 2.76457 23.4757 2.76276C23.4798 2.76095 23.4841 2.76002 23.4885 2.76003L26.9245 2.76099C26.939 2.76099 26.9528 2.76686 26.963 2.7773C26.9732 2.78774 26.979 2.8019 26.979 2.81667L26.9799 16.1943C26.9799 16.2022 26.9829 16.2097 26.9883 16.2153C26.9936 16.2209 27.0009 16.224 27.0085 16.224H30.51C30.519 16.224 30.5278 16.222 30.5359 16.2181C30.544 16.2141 30.5512 16.2084 30.5569 16.2012C30.5627 16.1941 30.5668 16.1857 30.5691 16.1767C30.5713 16.1677 30.5717 16.1583 30.57 16.1492L28.1495 2.85603C28.1473 2.84432 28.1477 2.83224 28.1505 2.82068C28.1534 2.80911 28.1587 2.79835 28.166 2.78917C28.1733 2.77998 28.1825 2.77261 28.1929 2.76757C28.2033 2.76253 28.2147 2.75996 28.2262 2.76003H31.7775C31.8354 2.76003 31.8689 2.78979 31.8781 2.84931C32.3834 6.13763 32.8665 9.39587 33.3275 12.624C33.4789 13.6852 33.586 14.5396 33.6487 15.1872C33.9386 18.1575 34.2756 21.122 34.5691 24.0912C34.5728 24.1264 34.5916 24.144 34.6254 24.144H35.0713C35.1119 24.144 35.1338 24.1226 35.1369 24.0797L36.4551 2.82243C36.4561 2.80722 36.4626 2.79293 36.4734 2.78243C36.4841 2.77193 36.4984 2.76599 36.5133 2.76579L40.4302 2.75907C40.477 2.75907 40.4961 2.78275 40.4875 2.83011L38.0623 16.153C38.0543 16.1952 38.071 16.217 38.1122 16.2183C38.199 16.2202 40.4265 16.1856 40.4958 16.2653C40.521 16.2954 40.5148 16.314 40.4773 16.321C40.3376 16.3485 40.241 16.4263 40.1874 16.5543C40.172 16.5901 40.181 16.6176 40.2142 16.6368L40.5715 16.8432C40.5779 16.8471 40.583 16.8531 40.5858 16.8603C40.5887 16.8675 40.5893 16.8754 40.5874 16.8829C40.5855 16.8904 40.5813 16.8971 40.5754 16.9019C40.5695 16.9067 40.5623 16.9094 40.5548 16.9095L37.9774 16.9248C37.9454 16.9248 37.9263 16.9415 37.9202 16.9748L34.8424 33.9188C34.8398 33.9333 34.8322 33.9463 34.8211 33.9557C34.8099 33.965 34.7959 33.9699 34.7815 33.9696L33.8611 33.9562C33.8428 33.9559 33.8252 33.949 33.8113 33.9368C33.7973 33.9245 33.7878 33.9076 33.7845 33.889L30.7205 17.0064C30.71 16.9488 30.6768 16.92 30.6208 16.92H27.0482C27.0298 16.92 27.0122 16.9276 26.9993 16.9411C26.9863 16.9546 26.979 16.9729 26.979 16.992L26.9799 33.8996C26.9799 33.9399 26.9605 33.96 26.9217 33.96H23.5513C23.5162 33.96 23.4956 33.9418 23.4895 33.9053L19.3417 9.09219C19.34 9.08072 19.3343 9.07026 19.3257 9.0627C19.317 9.05514 19.306 9.05096 19.2947 9.05091L18.2432 9.04707C18.2355 9.04693 18.2278 9.04844 18.2207 9.0515C18.2136 9.05456 18.2071 9.05912 18.2017 9.06488C18.1964 9.07064 18.1922 9.07748 18.1895 9.08499C18.1868 9.09249 18.1856 9.1005 18.186 9.10851L19.1645 33.9063C19.1657 33.9421 19.1491 33.96 19.1146 33.96H15.7165C15.7043 33.96 15.6925 33.955 15.6839 33.946C15.6752 33.937 15.6704 33.9248 15.6704 33.912V16.969C15.6704 16.9568 15.6656 16.9451 15.6571 16.9364C15.6486 16.9278 15.6371 16.9229 15.6251 16.9229L6.97242 16.92C6.94104 16.92 6.92534 16.9364 6.92534 16.969C6.92288 20.1306 6.92134 23.29 6.92073 26.4471C6.92073 28.1837 7.05458 30.0452 9.05228 30.4464C11.603 30.9591 11.7294 26.9184 11.7802 25.3143C11.8393 23.4148 11.8904 21.5152 11.9334 19.6157C11.9347 19.585 11.9501 19.57 11.9796 19.5706L12.5981 19.5898C12.6233 19.5904 12.6363 19.6039 12.6369 19.6301C12.6954 21.8471 12.7277 24.0637 12.7338 26.28C12.7403 28.7895 11.9141 33.1872 9.02459 33.8621C8.07928 34.0829 6.77856 33.9773 5.89049 33.5914C3.78201 32.6756 3.46352 30.1872 3.4626 28.0522C3.46075 21.7175 3.46045 15.3828 3.46168 9.04803C3.4626 8.01027 3.7137 6.54627 4.12911 5.60643C4.97288 3.69795 6.83764 2.61315 8.89166 2.71203C12.3802 2.88003 12.8086 5.97315 12.8058 8.88003C12.804 11.312 12.8058 13.7444 12.8114 16.177C12.812 16.2084 12.8274 16.224 12.8575 16.224ZM6.97704 16.2327L9.82773 16.2173C9.83777 16.2173 9.8474 16.2132 9.8545 16.2058C9.86159 16.1984 9.86558 16.1884 9.86558 16.178L9.82681 8.53251C9.8237 7.9102 9.68757 7.31407 9.44833 6.87518C9.20909 6.43629 8.88633 6.19056 8.55101 6.19203L8.15406 6.19395C7.98792 6.19467 7.82369 6.25614 7.67076 6.37484C7.51783 6.49354 7.3792 6.66715 7.26278 6.88575C7.14636 7.10435 7.05443 7.36365 6.99226 7.64884C6.93008 7.93404 6.89887 8.23953 6.90042 8.54787L6.93919 16.1933C6.93919 16.2037 6.94318 16.2138 6.95028 16.2211C6.95737 16.2285 6.967 16.2327 6.97704 16.2327Z" fill="#FBFDFB"/>
<path d="M44.7296 16.92H42.6747C42.6615 16.92 42.6486 16.9162 42.6374 16.9089C42.6263 16.9016 42.6174 16.8911 42.6117 16.8787C42.6061 16.8663 42.604 16.8525 42.6057 16.8389C42.6073 16.8253 42.6127 16.8124 42.6212 16.8019C42.7707 16.6137 42.7492 16.4518 42.5565 16.3161C42.5483 16.3103 42.5421 16.3018 42.5388 16.292C42.5355 16.2822 42.5353 16.2716 42.5381 16.2617C42.541 16.2518 42.5469 16.243 42.5548 16.2368C42.5628 16.2305 42.5724 16.227 42.5824 16.2269L44.5644 16.2221C44.5719 16.2221 44.5793 16.2204 44.5861 16.217C44.5929 16.2137 44.5989 16.2088 44.6036 16.2027C44.6083 16.1966 44.6116 16.1895 44.6133 16.1818C44.615 16.1742 44.615 16.1663 44.6133 16.1587L41.6509 2.83198C41.649 2.82341 41.6489 2.8145 41.6507 2.8059C41.6526 2.7973 41.6562 2.78925 41.6615 2.78233C41.6667 2.77541 41.6734 2.76981 41.681 2.76594C41.6886 2.76207 41.6969 2.76003 41.7054 2.75998H45.5355C45.5507 2.76004 45.5653 2.76571 45.5767 2.77594C45.588 2.78617 45.5954 2.80028 45.5974 2.81566L48.3438 21.791C48.3487 21.8237 48.3669 21.84 48.3982 21.84H48.6835C48.7216 21.84 48.742 21.8205 48.7444 21.7814L50.0959 2.82526C50.0984 2.78622 50.1178 2.7667 50.1541 2.7667L54.1209 2.75806C54.1299 2.75802 54.1389 2.76009 54.1471 2.76411C54.1553 2.76814 54.1626 2.77402 54.1684 2.78135C54.1742 2.78868 54.1784 2.79727 54.1807 2.80652C54.1831 2.81576 54.1834 2.82544 54.1818 2.83486C52.8629 10.0112 51.5376 17.1945 50.2058 24.3849C50.143 24.7248 50.111 25.0675 50.1098 25.4131C50.1024 28.2445 50.1011 31.0765 50.1061 33.9091C50.1061 33.943 50.0898 33.96 50.0571 33.96H46.8981C46.8667 33.96 46.851 33.9437 46.851 33.911C46.8492 31.0336 46.8489 28.1568 46.8501 25.2806C46.8507 25.0349 46.8203 24.7933 46.7587 24.5558C46.1079 22.031 45.4922 19.4861 44.7979 16.9737C44.7937 16.9583 44.7848 16.9447 44.7724 16.935C44.7601 16.9253 44.7451 16.92 44.7296 16.92Z" fill="#FBFDFB"/>
<path d="M56.4279 33.9764C57.34 33.9764 58.0794 33.2075 58.0794 32.2589C58.0794 31.3104 57.34 30.5415 56.4279 30.5415C55.5158 30.5415 54.7764 31.3104 54.7764 32.2589C54.7764 33.2075 55.5158 33.9764 56.4279 33.9764Z" fill="#FBFDFB"/>
</svg>
